<svg xmlns="http://www.w3.org/2000/svg" width="457" height="401" viewBox="0 0 457 401">
<g>
<path d="M 0.00 0.00 L 457.00 0.00 L 457.00 401.00 L 0.00 401.00 ZM 217.00 248.04 C227.20,249.36 247.50,248.30 256.57,245.98 C282.56,239.34 303.61,226.33 319.14,207.32 C325.17,199.94 333.60,186.33 335.75,180.50 C336.36,178.85 337.77,175.08 338.89,172.12 C343.15,160.84 344.49,152.22 344.49,136.00 C344.49,119.11 343.12,110.92 337.99,97.00 C324.05,59.18 292.21,32.80 251.68,25.51 C237.85,23.02 217.20,23.79 203.79,27.31 C172.56,35.51 144.92,57.97 131.27,86.25 C129.07,90.79 126.29,97.65 125.09,101.50 C123.88,105.35 122.48,109.26 121.98,110.18 C119.17,115.37 118.00,142.23 120.04,154.79 C122.19,168.09 129.84,187.37 137.28,198.28 C155.80,225.46 185.45,243.96 217.00,248.04 ZM 205.49 237.02 C204.60,238.45 203.26,238.18 195.50,234.95 C167.24,223.19 150.02,207.30 137.56,181.50 C112.57,129.75 134.16,68.22 186.33,42.48 C209.37,31.12 239.83,28.86 264.50,36.67 C277.58,40.81 297.44,53.38 307.09,63.63 C319.00,76.28 326.08,88.10 331.59,104.56 C345.88,147.27 331.05,193.98 294.56,221.23 C285.34,228.11 279.39,231.36 277.40,230.60 C275.25,229.78 275.62,219.07 278.05,211.86 C280.47,204.66 281.43,203.11 290.22,192.04 C304.71,173.82 311.01,153.95 310.99,126.62 C310.95,94.02 300.37,73.05 278.20,61.69 C260.68,52.71 237.33,49.90 219.31,54.59 C204.77,58.38 191.29,69.23 185.40,81.89 C183.45,86.08 180.32,92.55 178.44,96.27 C175.11,102.89 175.04,103.26 175.65,111.83 L 176.27 120.62 L 169.01 127.06 C154.55,139.88 152.83,141.74 153.17,144.15 C153.46,146.17 158.00,150.15 161.30,151.28 C162.13,151.56 161.72,153.06 160.00,156.09 C157.77,160.02 157.52,161.54 157.66,170.00 C157.84,180.98 160.24,194.91 162.66,199.00 C165.22,203.33 168.46,204.36 181.43,204.95 L 193.37 205.50 L 196.29 210.48 C199.68,216.26 206.38,235.58 205.49,237.02 ZM 266.83 212.19 C266.58,213.93 265.76,214.57 263.50,214.80 C260.41,215.10 258.00,213.58 258.00,211.32 C258.00,209.38 239.21,194.29 235.99,193.65 C230.78,192.61 230.92,186.00 236.16,186.00 C238.55,186.00 239.36,186.63 240.50,189.34 C241.33,191.32 244.25,194.43 247.70,196.98 C250.89,199.35 254.71,202.41 256.19,203.78 C260.48,207.74 261.44,206.41 262.75,194.69 C263.75,185.76 263.70,183.71 262.46,181.22 C260.79,177.86 250.35,171.00 246.93,171.00 C245.68,171.00 243.95,170.37 243.08,169.60 C241.10,167.85 224.98,165.90 223.31,167.21 C222.66,167.72 220.86,168.00 219.31,167.82 C217.26,167.59 216.41,166.88 216.17,165.19 C215.52,160.58 219.68,158.50 223.19,161.68 C224.69,163.03 227.38,163.38 237.20,163.50 C248.17,163.63 249.45,163.83 250.23,165.57 C251.33,168.05 263.21,176.00 265.79,176.00 C268.03,176.00 279.50,167.46 279.50,165.79 C279.50,164.17 259.16,152.00 256.45,152.00 C255.02,152.00 253.32,150.86 252.01,149.01 C249.04,144.84 237.27,137.46 232.34,136.67 C229.07,136.15 226.76,136.62 220.92,139.03 C216.89,140.69 212.83,142.75 211.88,143.61 C210.94,144.46 209.12,145.01 207.83,144.83 C205.89,144.56 205.45,143.83 205.21,140.50 C204.79,134.69 199.24,118.53 196.96,116.46 C194.80,114.51 194.39,111.01 196.10,109.30 C197.54,107.86 199.03,84.90 197.78,83.31 C195.77,80.73 197.38,77.54 201.34,76.25 C206.41,74.59 213.47,69.45 214.85,66.42 C216.11,63.67 220.31,63.11 222.92,65.35 C225.20,67.31 249.27,69.46 252.07,67.96 C255.04,66.38 258.86,67.58 259.54,70.31 C259.86,71.56 261.10,73.21 262.31,73.96 C275.46,82.20 279.60,84.41 282.78,84.92 C286.46,85.52 286.51,85.58 287.05,91.01 C287.34,94.03 288.53,99.20 289.67,102.50 C290.81,105.80 292.95,112.34 294.42,117.04 C296.08,122.32 297.84,126.05 299.05,126.80 C301.54,128.36 301.55,131.41 299.06,133.73 C296.60,136.03 288.78,157.88 288.05,164.50 C287.52,169.32 287.38,169.52 283.98,170.00 C279.73,170.61 271.00,176.68 271.00,179.03 C271.00,179.97 270.14,181.82 269.10,183.15 C266.73,186.16 264.32,206.47 266.08,208.60 C266.67,209.31 267.01,210.93 266.83,212.19 ZM 192.99 322.07 C205.78,325.96 218.92,315.42 218.98,301.22 C219.02,292.32 215.68,286.41 208.60,282.79 C202.87,279.87 190.85,280.50 185.61,284.00 C180.59,287.35 177.00,294.44 177.00,301.00 C177.00,311.48 182.65,318.92 192.99,322.07 ZM 201.54 109.07 C201.89,109.63 202.92,109.86 203.83,109.58 C204.75,109.31 210.00,107.87 215.50,106.39 C221.00,104.91 226.40,102.93 227.50,102.00 C228.60,101.06 230.22,100.05 231.10,99.74 C232.41,99.28 251.00,74.90 251.00,73.64 C251.00,72.71 225.44,70.88 220.75,71.48 C214.71,72.26 205.00,78.12 205.00,81.00 C205.00,81.97 204.39,83.26 203.65,83.88 C202.21,85.07 200.36,107.16 201.54,109.07 ZM 271.00 155.96 C276.23,159.21 281.31,161.90 282.30,161.93 C284.27,162.01 285.00,160.56 290.09,146.45 C291.87,141.53 293.36,135.98 293.41,134.13 L 293.50 130.75 L 279.00 124.91 C264.47,119.05 261.58,118.26 260.59,119.86 C260.29,120.33 259.57,125.91 258.98,132.24 C257.61,147.03 258.05,147.91 271.00,155.96 ZM 227.71 321.38 C228.11,321.77 230.02,321.96 231.96,321.80 L 235.50 321.50 L 236.00 310.00 C236.27,303.89 236.22,300.53 237.10,300.27 C237.99,300.00 239.82,302.90 243.88,309.32 C244.54,310.37 245.27,311.51 246.06,312.75 L 251.94 322.00 L 261.00 322.00 L 261.00 282.00 L 252.00 282.00 L 252.00 292.50 C252.00,298.27 251.62,303.00 251.16,303.00 C250.70,303.00 247.47,298.39 243.98,292.75 C240.49,287.11 237.18,282.19 236.62,281.82 C235.79,281.26 232.22,281.29 227.75,281.90 C226.79,282.03 226.76,320.42 227.71,321.38 ZM 246.05 108.13 C257.73,113.42 258.42,113.22 269.71,101.26 C274.78,95.89 278.94,90.79 278.96,89.93 C279.02,87.58 258.26,74.71 255.59,75.44 C252.51,76.29 235.49,100.96 236.68,102.85 C237.19,103.66 241.40,106.03 246.05,108.13 ZM 56.51 321.02 C56.88,321.62 59.05,321.97 61.34,321.80 C65.25,321.52 65.59,321.24 66.97,317.25 L 68.44 313.00 L 74.24 313.00 C79.67,313.00 80.11,313.18 81.02,315.75 C81.56,317.26 82.38,319.17 82.85,320.00 C83.81,321.69 90.78,322.62 92.16,321.24 C92.68,320.72 90.33,312.50 86.45,301.29 L 79.84 282.24 L 75.80 281.70 C70.66,281.01 69.43,281.51 68.14,284.82 C63.37,297.12 55.97,320.14 56.51,321.02 ZM 318.68 321.55 C323.85,323.39 326.77,323.29 331.50,321.11 C336.13,318.97 339.42,315.69 340.93,311.68 C342.50,307.55 342.35,282.35 340.75,281.74 C340.06,281.48 338.07,281.48 336.33,281.73 L 333.15 282.20 L 332.83 295.69 C332.50,309.06 332.47,309.20 329.69,311.59 C326.11,314.67 322.56,314.65 319.45,311.55 C317.09,309.18 317.00,308.59 317.00,295.65 L 317.00 295.34 C317.00,286.27 317.00,282.94 315.46,281.90 C314.56,281.29 313.13,281.47 310.88,281.74 L 310.75 281.76 L 307.00 282.22 L 307.02 295.36 C307.05,313.02 309.37,318.23 318.68,321.55 ZM 278.14 321.08 C284.48,323.27 285.29,323.33 290.45,321.89 C296.09,320.33 301.00,315.13 301.00,310.73 C301.00,305.56 297.66,302.18 288.27,297.84 C283.68,295.72 279.66,293.27 279.32,292.39 C277.88,288.65 285.02,288.40 290.12,292.01 C292.72,293.85 292.76,293.85 296.12,291.04 L 299.50 288.22 L 297.50 286.01 C294.23,282.39 290.46,281.00 283.92,281.00 C279.39,281.00 276.83,281.56 274.36,283.09 C264.80,289.00 268.30,297.85 282.98,304.89 C291.36,308.91 292.85,311.63 287.68,313.44 C285.34,314.27 283.96,313.97 279.66,311.72 C273.24,308.35 272.65,308.35 270.03,311.69 L 267.92 314.37 L 270.35 316.80 C271.68,318.14 275.19,320.07 278.14,321.08 ZM 151.00 321.36 C153.48,322.21 156.44,322.93 157.59,322.95 C161.29,323.04 169.17,320.19 171.63,317.88 L 174.02 315.63 L 171.32 312.82 C168.09,309.44 167.65,309.40 163.83,312.12 C155.06,318.37 142.78,307.19 147.06,296.86 C149.25,291.56 151.73,290.00 157.94,290.02 C161.00,290.02 164.16,290.45 164.98,290.96 C166.56,291.96 169.37,290.04 171.13,286.77 C172.76,283.72 166.85,281.01 158.57,281.00 C145.09,281.00 137.88,287.38 137.17,299.98 C136.87,305.25 137.22,307.50 138.80,310.59 C141.54,315.90 145.62,319.50 151.00,321.36 ZM 209.81 137.75 C210.40,138.22 210.78,138.56 211.23,138.73 C212.27,139.13 213.65,138.60 218.80,136.66 C219.13,136.54 219.48,136.41 219.85,136.27 C230.51,132.25 231.36,130.74 230.32,117.75 C229.55,108.09 229.37,107.48 227.19,107.17 C225.93,106.99 224.35,107.26 223.69,107.76 C222.53,108.64 216.09,110.19 207.00,111.77 C203.39,112.40 202.44,113.00 202.18,114.81 C201.74,117.85 207.84,136.19 209.81,137.75 ZM 244.34 138.97 C248.28,141.68 252.27,143.92 253.20,143.95 C255.20,144.01 255.68,141.66 256.37,128.47 C256.76,120.99 256.55,119.05 255.13,117.17 C253.46,114.95 237.05,107.00 234.15,107.00 C232.94,107.00 232.80,108.69 233.29,117.25 C234.04,130.35 235.26,132.74 244.34,138.97 ZM 350.69 321.36 C351.07,321.74 357.71,321.93 365.44,321.78 L 379.50 321.50 L 379.81 317.29 L 380.11 313.07 L 370.31 312.79 L 360.50 312.50 L 360.22 297.25 L 359.95 282.00 L 350.00 282.00 L 350.00 301.33 C350.00,311.97 350.31,320.98 350.69,321.36 ZM 388.71 321.38 C389.11,321.77 391.02,321.96 392.96,321.80 L 396.50 321.50 L 396.78 305.80 L 397.05 290.10 L 402.78 289.80 L 408.50 289.50 L 408.81 285.83 L 409.11 282.16 L 395.81 281.83 C388.49,281.65 380.92,281.65 378.98,281.83 C375.54,282.16 375.47,282.25 375.84,286.08 L 376.21 290.00 L 388.00 290.00 L 388.00 305.33 C388.00,313.77 388.32,320.99 388.71,321.38 ZM 277.68 120.86 C292.02,126.50 293.03,126.73 292.94,124.25 C292.83,121.27 283.44,94.65 282.37,94.29 C280.80,93.77 263.72,112.83 264.33,114.42 C264.62,115.18 270.63,118.08 277.68,120.86 ZM 204.86 311.47 C201.18,314.56 196.73,314.74 192.19,311.97 C185.65,307.99 184.46,299.17 189.63,293.03 C191.94,290.28 192.73,290.00 198.13,290.00 C203.08,290.00 204.50,290.41 206.48,292.39 C211.39,297.30 210.60,306.64 204.86,311.47 ZM 280.22 364.44 C285.02,367.80 293.68,365.46 296.48,360.03 C297.32,358.42 298.00,355.23 298.00,352.95 C298.00,349.56 297.37,348.17 294.60,345.40 C291.70,342.50 290.51,342.00 286.50,342.00 C282.49,342.00 281.30,342.50 278.40,345.40 C275.63,348.17 275.00,349.56 275.00,352.95 C275.00,357.74 277.02,362.20 280.22,364.44 ZM 138.86 363.17 C148.50,371.78 162.56,359.71 156.51,348.01 C154.35,343.85 151.18,342.00 146.18,342.00 C142.50,342.00 141.23,342.57 138.28,345.52 C134.91,348.89 134.78,349.30 135.22,354.69 C135.62,359.47 136.18,360.77 138.86,363.17 ZM 309.46 364.75 C309.75,365.52 311.00,366.00 312.25,365.82 C314.24,365.54 314.53,364.85 314.80,359.75 C314.96,356.59 315.44,354.00 315.85,354.00 C316.26,354.00 317.87,356.00 319.41,358.44 C323.41,364.76 325.71,366.67 327.78,365.36 C329.64,364.19 330.03,359.73 329.23,348.70 C328.77,342.47 328.55,341.92 326.62,342.20 C324.90,342.44 324.44,343.30 324.19,346.75 C324.02,349.09 323.48,351.00 322.99,351.00 C322.50,351.00 320.69,348.95 318.96,346.44 C316.21,342.45 315.43,341.92 312.66,342.19 L 309.50 342.50 L 309.21 352.93 C309.06,358.67 309.17,363.99 309.46,364.75 ZM 99.71 321.38 C100.11,321.77 102.02,321.96 103.96,321.80 L 107.50 321.50 L 108.04 282.23 L 104.77 281.75 C104.67,281.73 104.58,281.72 104.48,281.71 C102.78,281.45 101.61,281.28 100.80,281.74 C99.00,282.77 99.00,286.95 99.00,300.42 L 99.00 301.44 C99.00,312.01 99.32,320.99 99.71,321.38 ZM 199.30 364.04 C204.77,367.38 214.68,365.87 216.38,361.46 C216.72,360.56 217.00,355.79 217.00,350.85 L 217.00 341.87 L 214.25 342.18 C211.56,342.49 211.49,342.65 211.20,349.96 C210.88,358.05 209.97,360.00 206.50,360.00 C203.03,360.00 202.12,358.05 201.80,349.96 L 201.50 342.50 L 198.50 342.50 C195.51,342.50 195.50,342.51 195.19,349.00 C194.73,358.68 195.57,361.77 199.30,364.04 ZM 341.67 365.33 C343.13,366.79 351.59,365.94 354.75,364.01 C357.38,362.41 358.00,361.39 358.00,358.67 C358.00,354.83 356.25,352.92 350.57,350.58 C346.12,348.74 346.66,347.31 352.00,346.82 C354.75,346.57 355.57,346.02 355.82,344.25 C356.12,342.15 355.78,342.00 350.52,342.00 C345.90,342.00 344.48,342.43 342.45,344.45 C339.71,347.20 339.59,347.78 340.99,351.46 C341.63,353.17 343.56,354.74 346.57,356.03 C352.28,358.48 351.92,360.40 345.67,360.80 C341.97,361.05 341.00,361.48 341.00,362.89 C341.00,363.87 341.30,364.97 341.67,365.33 ZM 107.75 365.43 C109.01,366.71 118.65,365.46 121.41,363.65 C123.34,362.39 124.00,361.10 124.00,358.63 C124.00,354.86 122.23,352.91 116.75,350.65 C111.82,348.61 112.00,347.19 117.25,346.81 C120.78,346.55 121.55,346.12 121.82,344.25 C122.12,342.15 121.78,342.00 116.52,342.00 C111.90,342.00 110.48,342.43 108.45,344.45 C104.16,348.75 105.65,352.87 112.60,355.94 C118.30,358.46 117.93,360.40 111.67,360.80 C107.97,361.05 107.00,361.48 107.00,362.89 C107.00,363.87 107.34,365.01 107.75,365.43 ZM 235.52 364.82 C235.78,365.55 237.01,366.00 238.25,365.82 C240.36,365.52 240.52,364.97 240.79,356.75 C241.07,348.23 241.14,348.00 243.50,348.00 C246.01,348.00 248.59,344.76 247.49,342.98 C247.15,342.44 242.91,342.00 238.05,342.00 C231.39,342.00 229.08,342.35 228.68,343.40 C227.97,345.24 229.98,347.74 232.50,348.18 C234.26,348.48 234.53,349.41 234.77,356.01 C234.92,360.13 235.26,364.09 235.52,364.82 ZM 169.45 364.73 C169.84,365.74 171.74,366.01 176.74,365.80 C183.21,365.51 183.50,365.39 183.50,363.00 C183.50,360.78 183.03,360.47 179.29,360.19 L 175.08 359.89 L 174.79 351.19 C174.51,342.66 174.45,342.50 172.00,342.50 C169.51,342.50 169.50,342.55 169.21,352.93 C169.06,358.67 169.16,363.98 169.45,364.73 ZM 258.46 364.75 C258.75,365.52 260.00,366.00 261.25,365.82 C263.42,365.51 263.51,365.09 263.78,353.68 L 264.06 341.86 L 261.28 342.18 L 258.50 342.50 L 258.21 352.93 C258.06,358.67 258.17,363.99 258.46,364.75 ZM 149.80 358.74 C148.28,360.58 144.56,360.28 142.65,358.17 C139.59,354.79 141.02,349.15 145.31,347.65 C148.21,346.64 152.36,351.42 151.52,354.79 C151.14,356.28 150.37,358.05 149.80,358.74 ZM 290.17 358.35 C288.02,360.29 284.89,360.49 283.20,358.80 C281.09,356.69 281.72,350.31 284.22,348.56 C287.08,346.55 287.59,346.59 290.00,349.00 C292.50,351.50 292.58,356.16 290.17,358.35 ZM 76.54 301.25 C77.15,303.74 76.96,304.00 74.48,304.00 C71.95,304.00 71.80,303.77 72.39,300.82 C72.73,299.08 73.25,297.42 73.53,297.14 C74.35,296.31 75.81,298.30 76.54,301.25 Z" fill="rgb(24,2,46)"/>
<path d="M 217.00 248.04 C185.45,243.96 155.80,225.46 137.28,198.28 C129.84,187.37 122.19,168.09 120.04,154.79 C118.00,142.23 119.17,115.37 121.98,110.18 C122.38,109.45 123.34,106.84 124.32,103.86 C121.39,113.69 120.00,123.54 120.00,134.13 C120.00,141.87 120.30,144.00 121.38,144.00 C123.90,144.00 126.00,139.31 126.00,133.67 C126.00,126.92 128.61,111.67 130.47,107.58 C131.23,105.88 133.25,101.09 134.95,96.92 C139.62,85.47 146.49,74.90 155.04,65.73 C126.63,96.37 118.40,141.81 137.56,181.50 C150.02,207.30 167.24,223.19 195.50,234.95 C203.26,238.18 204.60,238.45 205.49,237.02 C206.38,235.58 199.68,216.26 196.29,210.48 L 193.37 205.50 L 181.43 204.95 C168.46,204.36 165.22,203.33 162.66,199.00 C160.24,194.91 157.84,180.98 157.66,170.00 C157.52,161.54 157.77,160.02 160.00,156.09 C161.72,153.06 162.13,151.56 161.30,151.28 C158.00,150.15 153.46,146.17 153.17,144.15 C152.83,141.74 154.55,139.88 169.01,127.06 L 176.27 120.62 L 175.65 111.83 C175.10,104.17 175.10,103.06 177.49,98.18 C176.60,100.80 176.50,103.71 176.50,111.25 C176.50,117.71 176.77,122.99 177.10,123.00 C177.42,123.00 178.50,122.10 179.49,121.01 C181.04,119.30 181.20,117.91 180.65,111.34 C180.60,110.84 180.56,110.38 180.52,109.95 C180.36,108.18 180.25,106.91 180.33,105.65 C180.56,102.07 182.38,98.59 189.26,84.25 C191.83,78.90 193.22,82.82 193.05,94.88 C192.96,100.90 192.39,105.27 191.46,107.08 C188.96,111.91 189.60,115.38 193.72,119.39 C195.77,121.37 197.82,123.00 198.29,123.00 C199.72,123.00 197.93,118.58 195.91,117.13 C193.54,115.42 193.46,111.76 195.72,108.31 C196.57,107.01 197.35,102.59 197.85,97.81 C197.44,103.41 196.77,108.63 196.10,109.30 C194.39,111.01 194.80,114.51 196.96,116.46 C199.24,118.53 204.79,134.69 205.21,140.50 C205.45,143.83 205.89,144.56 207.83,144.83 C209.12,145.01 210.94,144.46 211.88,143.61 C212.83,142.75 216.89,140.69 220.92,139.03 C226.76,136.62 229.07,136.15 232.34,136.67 C237.27,137.46 249.04,144.84 252.01,149.01 C253.32,150.86 255.02,152.00 256.45,152.00 C259.16,152.00 279.50,164.17 279.50,165.79 C279.50,167.46 268.03,176.00 265.79,176.00 C263.21,176.00 251.33,168.05 250.23,165.57 C249.45,163.83 248.17,163.63 237.20,163.50 C227.38,163.38 224.69,163.03 223.19,161.68 C219.68,158.50 215.52,160.58 216.17,165.19 C216.41,166.88 217.26,167.59 219.31,167.82 C220.86,168.00 222.66,167.72 223.31,167.21 C224.98,165.90 241.10,167.85 243.08,169.60 C243.95,170.37 245.68,171.00 246.93,171.00 C250.35,171.00 260.79,177.86 262.46,181.22 C263.70,183.71 263.75,185.76 262.75,194.69 C261.44,206.41 260.48,207.74 256.19,203.78 C254.71,202.41 250.89,199.35 247.70,196.98 C244.25,194.43 241.33,191.32 240.50,189.34 C239.36,186.63 238.55,186.00 236.16,186.00 C230.92,186.00 230.78,192.61 235.99,193.65 C239.21,194.29 258.00,209.38 258.00,211.32 C258.00,213.58 260.41,215.10 263.50,214.80 C265.76,214.57 266.58,213.93 266.83,212.19 C267.01,210.93 266.67,209.31 266.08,208.60 C264.32,206.47 266.73,186.16 269.10,183.15 C270.14,181.82 271.00,179.97 271.00,179.03 C271.00,176.68 279.73,170.61 283.98,170.00 C287.38,169.52 287.52,169.32 288.05,164.50 C288.78,157.88 296.60,136.03 299.06,133.73 C301.55,131.41 301.54,128.36 299.05,126.80 C297.84,126.05 296.08,122.32 294.42,117.04 C292.95,112.34 290.81,105.80 289.67,102.50 C288.57,99.32 287.43,94.40 287.08,91.35 C287.81,96.90 294.04,115.31 297.46,121.92 C301.90,130.52 300.94,122.78 295.43,105.71 C293.35,99.25 291.86,92.67 291.92,90.18 C292.00,86.67 291.48,85.32 289.09,82.93 C287.41,81.26 285.09,80.00 283.66,80.00 C280.67,80.00 263.00,69.22 263.00,67.39 C263.00,64.13 253.83,61.55 250.28,63.81 C248.50,64.94 227.85,62.55 225.22,60.91 C224.00,60.14 223.00,59.23 223.00,58.88 C223.00,56.63 241.99,56.39 253.97,58.49 C270.47,61.40 276.64,64.20 286.50,73.30 C297.97,83.89 302.78,93.75 305.60,112.50 C306.43,118.00 307.53,122.65 308.05,122.83 C308.57,123.02 309.09,124.14 309.21,125.33 C309.32,126.53 309.57,123.22 309.75,118.00 C309.94,112.59 309.53,107.37 308.56,102.40 C310.18,109.62 310.98,117.68 310.99,126.62 C311.01,153.95 304.71,173.82 290.22,192.04 C281.43,203.11 280.47,204.66 278.05,211.86 C275.62,219.07 275.25,229.78 277.40,230.60 C279.39,231.36 285.34,228.11 294.56,221.23 C331.05,193.98 345.88,147.27 331.59,104.56 C326.08,88.10 319.00,76.28 307.09,63.63 C297.84,53.81 279.20,41.84 266.15,37.22 C271.30,38.79 276.39,40.72 281.39,43.00 C287.29,45.69 288.48,45.95 289.68,44.75 C290.45,43.98 290.81,42.66 290.48,41.81 C289.86,40.21 276.85,33.18 268.81,29.89 C301.11,40.73 326.08,64.69 337.99,97.00 C343.12,110.92 344.49,119.11 344.49,136.00 C344.49,152.22 343.15,160.84 338.89,172.12 C337.77,175.08 336.36,178.85 335.75,180.50 C333.60,186.33 325.17,199.94 319.14,207.32 C303.61,226.33 282.56,239.34 256.57,245.98 C247.50,248.30 227.20,249.36 217.00,248.04 ZM 222.97 241.00 C236.05,242.25 254.16,240.08 265.97,235.83 L 272.44 233.50 L 272.16 225.00 C271.76,212.85 274.28,205.37 282.29,194.92 C293.65,180.10 297.00,174.17 297.00,168.86 L 297.00 165.96 L 292.67 170.48 C289.86,173.42 287.49,175.00 285.90,175.00 C281.86,175.00 276.71,179.34 273.74,185.24 C271.54,189.63 270.94,192.32 270.74,198.62 C270.61,202.95 270.89,208.19 271.36,210.25 C272.15,213.69 271.96,214.24 269.00,217.00 C263.99,221.68 257.43,220.54 254.55,214.47 C252.84,210.87 236.82,198.00 234.05,198.00 C231.17,198.00 227.60,193.30 227.60,189.52 C227.60,179.91 240.73,177.33 244.45,186.21 C245.67,189.15 255.12,198.00 257.02,198.00 C258.03,198.00 259.28,185.88 258.48,183.81 C256.16,177.76 235.92,171.32 223.25,172.60 C216.43,173.29 213.86,172.27 209.43,167.13 L 207.17 164.50 L 187.04 164.48 C167.54,164.46 166.85,164.53 164.83,166.68 C162.96,168.68 162.80,169.76 163.25,177.70 C163.52,182.54 164.30,188.88 164.97,191.79 C166.76,199.57 168.70,200.52 182.31,200.27 C188.33,200.16 194.03,200.48 194.98,200.99 C197.11,202.13 203.15,213.60 205.51,221.00 C206.47,224.02 207.60,226.95 208.00,227.50 C208.41,228.05 209.29,230.85 209.96,233.71 C211.36,239.71 211.74,239.92 222.97,241.00 ZM 271.00 155.96 C258.05,147.91 257.61,147.03 258.98,132.24 C259.57,125.91 260.29,120.33 260.59,119.86 C261.58,118.26 264.47,119.05 279.00,124.91 L 293.50 130.75 L 293.41 134.13 C293.36,135.98 291.87,141.53 290.09,146.45 C285.00,160.56 284.27,162.01 282.30,161.93 C281.31,161.90 276.23,159.21 271.00,155.96 ZM 216.35 101.04 C212.97,102.01 209.26,103.10 208.10,103.47 C206.09,104.11 206.00,103.80 206.00,96.55 C206.00,90.28 206.41,88.31 208.37,85.23 C211.61,80.13 214.17,78.02 218.68,76.73 C222.76,75.56 240.02,75.65 241.23,76.84 C242.43,78.03 230.72,93.70 226.47,96.59 C224.29,98.07 219.73,100.07 216.35,101.04 ZM 244.34 138.97 C235.26,132.74 234.04,130.35 233.29,117.25 C232.80,108.69 232.94,107.00 234.15,107.00 C237.05,107.00 253.46,114.95 255.13,117.17 C256.55,119.05 256.76,120.99 256.37,128.47 C255.68,141.66 255.20,144.01 253.20,143.95 C252.27,143.92 248.28,141.68 244.34,138.97 ZM 209.81 137.75 C207.84,136.19 201.74,117.85 202.18,114.81 C202.44,113.00 203.39,112.40 207.00,111.77 C216.09,110.19 222.53,108.64 223.69,107.76 C224.35,107.26 225.93,106.99 227.19,107.17 C227.86,107.27 228.33,107.39 228.70,107.78 L 224.25 108.40 C221.64,108.76 215.90,110.10 211.50,111.38 C202.44,114.01 201.69,115.14 204.63,121.65 L 206.37 125.50 L 206.94 121.00 L 207.50 116.50 L 215.96 114.28 C225.41,111.81 225.96,112.02 225.98,118.13 C225.99,120.12 226.68,122.32 227.50,123.00 C228.81,124.09 229.00,123.21 229.00,115.99 L 229.00 108.23 C229.60,109.39 229.85,111.92 230.32,117.75 C231.36,130.74 230.51,132.25 219.85,136.27 C219.48,136.41 219.13,136.54 218.80,136.66 C213.65,138.60 212.27,139.13 211.23,138.73 C210.78,138.56 210.40,138.22 209.81,137.75 ZM 280.22 364.44 C277.02,362.20 275.00,357.74 275.00,352.95 C275.00,349.56 275.63,348.17 278.40,345.40 C281.30,342.50 282.49,342.00 286.50,342.00 C290.51,342.00 291.70,342.50 294.60,345.40 C297.37,348.17 298.00,349.56 298.00,352.95 C298.00,355.23 297.32,358.42 296.48,360.03 C293.68,365.46 285.02,367.80 280.22,364.44 ZM 138.86 363.17 C136.18,360.77 135.62,359.47 135.22,354.69 C134.78,349.30 134.91,348.89 138.28,345.52 C141.23,342.57 142.50,342.00 146.18,342.00 C151.18,342.00 154.35,343.85 156.51,348.01 C162.56,359.71 148.50,371.78 138.86,363.17 ZM 264.68 99.25 C260.68,103.51 256.75,106.99 255.95,106.97 C254.14,106.93 242.00,101.27 242.00,100.46 C242.00,99.16 256.07,81.00 257.07,81.00 C258.56,81.00 272.00,89.78 271.98,90.73 C271.97,91.15 268.68,94.99 264.68,99.25 ZM 309.46 364.75 C309.17,363.99 309.06,358.67 309.21,352.93 L 309.50 342.50 L 312.66 342.19 C315.43,341.92 316.21,342.45 318.96,346.44 C320.69,348.95 322.50,351.00 322.99,351.00 C323.48,351.00 324.02,349.09 324.19,346.75 C324.44,343.30 324.90,342.44 326.62,342.20 C328.55,341.92 328.77,342.47 329.23,348.70 C330.03,359.73 329.64,364.19 327.78,365.36 C325.71,366.67 323.41,364.76 319.41,358.44 C317.87,356.00 316.26,354.00 315.85,354.00 C315.44,354.00 314.96,356.59 314.80,359.75 C314.53,364.85 314.24,365.54 312.25,365.82 C311.00,366.00 309.75,365.52 309.46,364.75 ZM 199.30 364.04 C195.57,361.77 194.73,358.68 195.19,349.00 C195.50,342.51 195.51,342.50 198.50,342.50 L 201.50 342.50 L 201.80 349.96 C202.12,358.05 203.03,360.00 206.50,360.00 C209.97,360.00 210.88,358.05 211.20,349.96 C211.49,342.65 211.56,342.49 214.25,342.18 L 217.00 341.87 L 217.00 350.85 C217.00,355.79 216.72,360.56 216.38,361.46 C214.68,365.87 204.77,367.38 199.30,364.04 ZM 341.67 365.33 C341.30,364.97 341.00,363.87 341.00,362.89 C341.00,361.48 341.97,361.05 345.67,360.80 C351.92,360.40 352.28,358.48 346.57,356.03 C343.56,354.74 341.63,353.17 340.99,351.46 C339.59,347.78 339.71,347.20 342.45,344.45 C344.48,342.43 345.90,342.00 350.52,342.00 C355.78,342.00 356.12,342.15 355.82,344.25 C355.57,346.02 354.75,346.57 352.00,346.82 C346.66,347.31 346.12,348.74 350.57,350.58 C356.25,352.92 358.00,354.83 358.00,358.67 C358.00,361.39 357.38,362.41 354.75,364.01 C351.59,365.94 343.13,366.79 341.67,365.33 ZM 107.75 365.43 C107.34,365.01 107.00,363.87 107.00,362.89 C107.00,361.48 107.97,361.05 111.67,360.80 C117.93,360.40 118.30,358.46 112.60,355.94 C105.65,352.87 104.16,348.75 108.45,344.45 C110.48,342.43 111.90,342.00 116.52,342.00 C121.78,342.00 122.12,342.15 121.82,344.25 C121.55,346.12 120.78,346.55 117.25,346.81 C112.00,347.19 111.82,348.61 116.75,350.65 C122.23,352.91 124.00,354.86 124.00,358.63 C124.00,361.10 123.34,362.39 121.41,363.65 C118.65,365.46 109.01,366.71 107.75,365.43 ZM 235.52 364.82 C235.26,364.09 234.92,360.13 234.77,356.01 C234.53,349.41 234.26,348.48 232.50,348.18 C229.98,347.74 227.97,345.24 228.68,343.40 C229.08,342.35 231.39,342.00 238.05,342.00 C242.91,342.00 247.15,342.44 247.49,342.98 C248.59,344.76 246.01,348.00 243.50,348.00 C241.14,348.00 241.07,348.23 240.79,356.75 C240.52,364.97 240.36,365.52 238.25,365.82 C237.01,366.00 235.78,365.55 235.52,364.82 ZM 169.45 364.73 C169.16,363.98 169.06,358.67 169.21,352.93 C169.50,342.55 169.51,342.50 172.00,342.50 C174.45,342.50 174.51,342.66 174.79,351.19 L 175.08 359.89 L 179.29 360.19 C183.03,360.47 183.50,360.78 183.50,363.00 C183.50,365.39 183.21,365.51 176.74,365.80 C171.74,366.01 169.84,365.74 169.45,364.73 ZM 286.00 117.75 C286.00,118.44 285.44,118.97 284.75,118.93 C282.95,118.82 271.00,113.21 271.00,112.48 C271.00,111.54 279.21,102.00 280.02,102.00 C280.80,102.00 286.01,115.73 286.00,117.75 ZM 234.50 117.03 C235.27,125.74 236.50,126.44 237.82,118.93 C238.46,115.29 238.95,114.56 240.55,114.83 C245.15,115.62 251.07,119.06 252.85,121.99 L 254.75 125.11 L 255.27 122.38 C255.56,120.87 255.29,118.84 254.69,117.87 C253.46,115.91 235.32,107.35 234.38,108.29 C234.05,108.62 234.11,112.55 234.50,117.03 ZM 258.46 364.75 C258.17,363.99 258.06,358.67 258.21,352.93 L 258.50 342.50 L 261.28 342.18 L 264.06 341.86 L 263.78 353.68 C263.51,365.09 263.42,365.51 261.25,365.82 C260.00,366.00 258.75,365.52 258.46,364.75 ZM 149.80 358.74 C150.37,358.05 151.14,356.28 151.52,354.79 C152.36,351.42 148.21,346.64 145.31,347.65 C141.02,349.15 139.59,354.79 142.65,358.17 C144.56,360.28 148.28,360.58 149.80,358.74 ZM 290.17 358.35 C292.58,356.16 292.50,351.50 290.00,349.00 C287.59,346.59 287.08,346.55 284.22,348.56 C281.72,350.31 281.09,356.69 283.20,358.80 C284.89,360.49 288.02,360.29 290.17,358.35 ZM 205.91 69.30 C202.35,71.97 199.00,72.84 199.00,71.09 C199.00,70.03 208.55,63.00 210.00,63.00 C212.47,63.00 210.73,65.68 205.91,69.30 ZM 261.00 122.54 C261.00,124.77 261.24,124.94 263.01,123.99 C264.12,123.40 266.71,123.19 268.76,123.52 L 272.50 124.13 L 268.14 122.06 C262.40,119.34 261.00,119.44 261.00,122.54 ZM 262.98 167.48 C264.60,169.43 268.00,169.46 268.00,167.52 C268.00,166.01 263.40,164.27 262.31,165.36 C261.98,165.68 262.28,166.64 262.98,167.48 ZM 186.33 42.48 C200.03,35.73 215.26,32.27 230.89,32.09 C215.26,32.43 199.57,35.95 186.33,42.48 ZM 252.62 25.68 C245.76,24.57 238.39,24.03 231.09,24.07 C238.47,23.97 245.71,24.43 251.68,25.51 C252.00,25.56 252.31,25.62 252.62,25.68 ZM 300.32 81.62 C294.97,73.29 287.49,66.45 278.20,61.69 C287.65,66.54 295.00,73.12 300.32,81.62 ZM 198.16 28.96 C181.69,34.27 166.34,43.58 153.86,55.50 C166.33,43.56 181.64,34.27 198.16,28.96 ZM 181.99 89.05 C183.22,86.51 184.45,83.93 185.40,81.89 C191.29,69.24 204.76,58.39 219.29,54.60 C204.74,58.40 191.26,69.26 185.42,81.89 C184.41,84.08 183.17,86.68 181.99,89.05 ZM 197.89 83.50 C197.85,83.42 197.81,83.36 197.77,83.31 C196.19,81.26 196.87,78.85 199.17,77.29 C196.86,78.86 196.19,81.27 197.78,83.31 C197.82,83.35 197.85,83.42 197.89,83.50 Z" fill="rgb(198,33,214)"/>
<path d="M 261.78 219.86 C260.61,219.97 259.77,220.02 259.00,219.82 C257.13,219.35 255.62,217.45 250.55,211.50 L 247.15 207.50 L 225.50 207.36 C207.67,207.25 203.75,207.48 203.31,208.64 C203.01,209.42 204.12,214.20 205.77,219.28 C207.43,224.35 209.32,230.85 209.98,233.71 C210.56,236.22 210.96,237.71 212.05,238.68 C210.95,237.71 210.55,236.22 209.96,233.71 C209.29,230.85 208.41,228.05 208.00,227.50 C207.60,226.95 206.47,224.02 205.51,221.00 C203.15,213.60 197.11,202.13 194.98,200.99 C194.03,200.48 188.33,200.16 182.31,200.27 C168.70,200.52 166.76,199.57 164.97,191.79 C164.30,188.88 163.52,182.54 163.25,177.70 C162.80,169.76 162.96,168.68 164.83,166.68 C166.85,164.53 167.54,164.46 187.04,164.48 L 207.17 164.50 L 209.43 167.13 C213.86,172.27 216.43,173.29 223.25,172.60 C235.92,171.32 256.16,177.76 258.48,183.81 C259.28,185.88 258.03,198.00 257.02,198.00 C255.12,198.00 245.67,189.15 244.45,186.21 C240.73,177.33 227.60,179.91 227.60,189.52 C227.60,193.30 231.17,198.00 234.05,198.00 C236.82,198.00 252.84,210.87 254.55,214.47 C256.14,217.81 258.84,219.66 261.78,219.86 ZM 186.33 42.48 C174.17,48.48 163.68,56.42 155.04,65.73 C146.49,74.90 139.62,85.47 134.95,96.92 C133.25,101.09 131.23,105.88 130.47,107.58 C128.61,111.67 126.00,126.92 126.00,133.67 C126.00,139.31 123.90,144.00 121.38,144.00 C120.30,144.00 120.00,141.87 120.00,134.13 C120.00,123.54 121.39,113.69 124.32,103.86 C124.58,103.09 124.84,102.29 125.09,101.50 C126.29,97.65 129.07,90.79 131.27,86.25 C136.76,74.87 144.51,64.44 153.86,55.50 C166.34,43.58 181.69,34.27 198.16,28.96 C200.03,28.36 201.90,27.81 203.79,27.31 C211.42,25.31 221.37,24.20 231.09,24.07 C238.39,24.03 245.76,24.57 252.62,25.68 C258.19,26.73 263.60,28.14 268.81,29.89 C276.85,33.18 289.86,40.21 290.48,41.81 C290.81,42.66 290.45,43.98 289.68,44.75 C288.48,45.95 287.29,45.69 281.39,43.00 C276.39,40.72 271.30,38.79 266.15,37.22 C265.59,37.02 265.04,36.84 264.50,36.67 C254.01,33.34 242.46,31.85 230.89,32.09 C215.26,32.27 200.03,35.73 186.33,42.48 ZM 201.54 109.07 C200.36,107.16 202.21,85.07 203.65,83.88 C204.39,83.26 205.00,81.97 205.00,81.00 C205.00,78.12 214.71,72.26 220.75,71.48 C221.07,71.44 221.47,71.41 221.95,71.40 C221.53,71.50 221.21,71.64 220.94,71.81 C219.89,72.46 218.19,73.00 217.17,73.00 C216.15,73.00 214.48,73.92 213.46,75.04 C211.62,77.08 211.63,77.08 216.06,76.40 C218.50,76.02 221.54,75.32 222.82,74.85 C226.16,73.62 241.75,75.00 243.12,76.65 C244.75,78.61 246.76,78.31 248.05,75.91 C248.66,74.77 248.98,73.65 248.76,73.42 C248.54,73.21 243.28,72.56 236.80,71.93 C244.09,72.43 251.00,73.16 251.00,73.64 C251.00,74.90 232.41,99.28 231.10,99.74 C230.22,100.05 228.60,101.06 227.50,102.00 C226.40,102.93 221.00,104.91 215.50,106.39 C210.00,107.87 204.75,109.31 203.83,109.58 C202.92,109.86 201.89,109.63 201.54,109.07 ZM 246.05 108.13 C241.40,106.03 237.19,103.66 236.68,102.85 C235.49,100.96 252.51,76.29 255.59,75.44 C258.26,74.71 279.02,87.58 278.96,89.93 C278.94,90.79 274.78,95.89 269.71,101.26 C258.42,113.22 257.73,113.42 246.05,108.13 ZM 216.35 101.04 C219.73,100.07 224.29,98.07 226.47,96.59 C230.72,93.70 242.43,78.03 241.23,76.84 C240.02,75.65 222.76,75.56 218.68,76.73 C214.17,78.02 211.61,80.13 208.37,85.23 C206.41,88.31 206.00,90.28 206.00,96.55 C206.00,103.80 206.09,104.11 208.10,103.47 C209.26,103.10 212.97,102.01 216.35,101.04 ZM 277.68 120.86 C270.63,118.08 264.62,115.18 264.33,114.42 C263.72,112.83 280.80,93.77 282.37,94.29 C283.44,94.65 292.83,121.27 292.94,124.25 C293.03,126.73 292.02,126.50 277.68,120.86 ZM 268.97 234.75 C271.15,233.67 272.34,232.55 272.13,231.47 C271.93,230.38 271.55,226.88 271.29,223.68 C270.88,218.71 270.57,217.97 269.16,218.61 C268.45,218.93 266.57,219.31 264.56,219.58 C266.09,219.16 267.60,218.30 269.00,217.00 C271.96,214.24 272.15,213.69 271.36,210.25 C270.89,208.19 270.61,202.95 270.74,198.62 C270.94,192.32 271.54,189.63 273.74,185.24 C276.71,179.34 281.86,175.00 285.90,175.00 C287.49,175.00 289.86,173.42 292.67,170.48 L 297.00 165.96 L 297.00 168.86 C297.00,174.17 293.65,180.10 282.29,194.92 C274.28,205.37 271.76,212.85 272.16,225.00 L 272.44 233.50 ZM 181.99 89.05 L 181.99 89.05 C183.17,86.68 184.41,84.08 185.42,81.89 C187.60,77.18 190.84,72.72 194.79,68.78 L 194.77 68.80 C193.74,69.92 192.78,71.09 191.90,72.30 C188.32,77.24 188.31,77.78 191.75,78.21 C193.26,78.41 195.26,77.94 196.18,77.19 C197.10,76.44 199.80,75.39 202.18,74.86 C205.10,74.21 208.21,72.72 210.66,70.95 C207.88,73.16 204.27,75.29 201.34,76.25 C200.85,76.41 200.39,76.60 199.97,76.82 C199.71,76.95 199.47,77.09 199.24,77.24 C199.21,77.26 199.19,77.28 199.17,77.29 C196.87,78.85 196.19,81.26 197.77,83.31 C197.81,83.36 197.85,83.42 197.89,83.50 C198.44,84.94 198.31,91.61 197.85,97.81 C197.35,102.59 196.57,107.01 195.72,108.31 C193.46,111.76 193.54,115.42 195.91,117.13 C197.93,118.58 199.72,123.00 198.29,123.00 C197.82,123.00 195.77,121.37 193.72,119.39 C189.60,115.38 188.96,111.91 191.46,107.08 C192.39,105.27 192.96,100.90 193.05,94.88 C193.22,82.82 191.83,78.90 189.26,84.25 C182.38,98.59 180.56,102.07 180.33,105.65 C180.25,106.91 180.36,108.18 180.52,109.95 C180.56,110.38 180.60,110.84 180.65,111.34 C181.20,117.91 181.04,119.30 179.49,121.01 C178.50,122.10 177.42,123.00 177.10,123.00 C176.77,122.99 176.50,117.71 176.50,111.25 C176.50,103.71 176.60,100.80 177.49,98.18 C177.77,97.60 178.09,96.97 178.44,96.27 C179.41,94.36 180.70,91.73 181.99,89.05 ZM 264.68 99.25 C268.68,94.99 271.97,91.15 271.98,90.73 C272.00,89.78 258.56,81.00 257.07,81.00 C256.07,81.00 242.00,99.16 242.00,100.46 C242.00,101.27 254.14,106.93 255.95,106.97 C256.75,106.99 260.68,103.51 264.68,99.25 ZM 297.46 121.92 C294.04,115.31 287.81,96.90 287.08,91.35 C287.07,91.23 287.06,91.12 287.05,91.01 C286.51,85.58 286.46,85.52 282.78,84.92 C279.60,84.41 275.46,82.20 262.31,73.96 C261.92,73.72 261.52,73.38 261.15,72.99 C261.19,73.00 261.22,73.00 261.25,73.00 C261.81,73.00 264.43,74.32 267.06,75.94 C270.72,78.20 271.95,78.56 272.36,77.51 C272.69,76.65 271.04,74.95 267.94,72.96 C264.96,71.05 263.00,69.06 263.00,67.95 C263.00,66.23 261.14,64.69 258.75,63.77 C261.13,64.58 263.00,65.92 263.00,67.39 C263.00,69.22 280.67,80.00 283.66,80.00 C285.09,80.00 287.41,81.26 289.09,82.93 C291.48,85.32 292.00,86.67 291.92,90.18 C291.86,92.67 293.35,99.25 295.43,105.71 C300.94,122.78 301.90,130.52 297.46,121.92 ZM 275.89 60.56 C276.67,60.93 277.44,61.30 278.20,61.69 C287.65,66.54 295.00,73.12 300.32,81.62 C304.06,87.59 306.79,94.49 308.56,102.40 C309.53,107.37 309.94,112.59 309.75,118.00 C309.57,123.22 309.32,126.53 309.21,125.33 C309.09,124.14 308.57,123.02 308.05,122.83 C307.53,122.65 306.43,118.00 305.60,112.50 C302.78,93.75 297.97,83.89 286.50,73.30 C283.34,70.39 280.56,68.12 277.70,66.29 C279.95,67.54 282.23,68.98 284.68,70.65 C297.05,79.09 297.28,76.08 285.00,66.55 C281.92,64.16 278.98,62.20 275.89,60.56 ZM 224.25 108.40 L 228.70 107.78 C228.81,107.90 228.91,108.05 229.00,108.23 L 229.00 115.99 C229.00,123.21 228.81,124.09 227.50,123.00 C226.68,122.32 225.99,120.12 225.98,118.13 C225.96,112.02 225.41,111.81 215.96,114.28 L 207.50 116.50 L 206.94 121.00 L 206.37 125.50 L 204.63 121.65 C201.69,115.14 202.44,114.01 211.50,111.38 C215.90,110.10 221.64,108.76 224.25,108.40 ZM 286.00 117.75 C286.01,115.73 280.80,102.00 280.02,102.00 C279.21,102.00 271.00,111.54 271.00,112.48 C271.00,113.21 282.95,118.82 284.75,118.93 C285.44,118.97 286.00,118.44 286.00,117.75 ZM 234.50 117.03 C234.11,112.55 234.05,108.62 234.38,108.29 C235.32,107.35 253.46,115.91 254.69,117.87 C255.29,118.84 255.56,120.87 255.27,122.38 L 254.75 125.11 L 252.85 121.99 C251.07,119.06 245.15,115.62 240.55,114.83 C238.95,114.56 238.46,115.29 237.82,118.93 C236.50,126.44 235.27,125.74 234.50,117.03 ZM 261.00 122.54 C261.00,119.44 262.40,119.34 268.14,122.06 L 272.50 124.13 L 268.76 123.52 C266.71,123.19 264.12,123.40 263.01,123.99 C261.24,124.94 261.00,124.77 261.00,122.54 ZM 262.98 167.48 C262.28,166.64 261.98,165.68 262.31,165.36 C263.40,164.27 268.00,166.01 268.00,167.52 C268.00,169.46 264.60,169.43 262.98,167.48 ZM 208.29 58.89 C211.81,57.04 215.51,55.58 219.29,54.60 L 219.31 54.59 C222.43,53.78 225.71,53.19 229.10,52.82 C221.59,53.73 214.53,55.80 208.36,58.85 ZM 222.97 241.00 C232.10,241.87 244.26,240.87 254.21,239.00 C243.95,241.06 232.21,241.89 222.97,241.00 ZM 245.14 52.63 C249.79,53.00 254.47,53.73 259.03,54.79 C255.75,54.11 252.12,53.51 248.00,52.96 C247.05,52.83 246.09,52.72 245.14,52.63 ZM 257.29 67.76 C255.78,67.06 253.78,67.05 252.07,67.96 C253.83,67.02 255.79,67.03 257.29,67.76 ZM 217.75 64.13 C219.43,63.70 221.42,64.07 222.92,65.35 C221.43,64.08 219.43,63.71 217.75,64.13 Z" fill="rgb(236,143,240)"/>
<path d="M 151.00 321.36 C145.62,319.50 141.54,315.90 138.80,310.59 C137.22,307.50 136.87,305.25 137.17,299.98 C137.88,287.38 145.09,281.00 158.57,281.00 C166.85,281.01 172.76,283.72 171.13,286.77 C169.37,290.04 166.56,291.96 164.98,290.96 C164.16,290.45 161.00,290.02 157.94,290.02 C151.73,290.00 149.25,291.56 147.06,296.86 C142.78,307.19 155.06,318.37 163.83,312.12 C167.65,309.40 168.09,309.44 171.32,312.82 L 174.02 315.63 L 171.63 317.88 C169.17,320.19 161.29,323.04 157.59,322.95 C156.44,322.93 153.48,322.21 151.00,321.36 ZM 192.99 322.07 C182.65,318.92 177.00,311.48 177.00,301.00 C177.00,294.44 180.59,287.35 185.61,284.00 C190.85,280.50 202.87,279.87 208.60,282.79 C215.68,286.41 219.02,292.32 218.98,301.22 C218.92,315.42 205.78,325.96 192.99,322.07 ZM 204.86 311.47 C210.60,306.64 211.39,297.30 206.48,292.39 C204.50,290.41 203.08,290.00 198.13,290.00 C192.73,290.00 191.94,290.28 189.63,293.03 C184.46,299.17 185.65,307.99 192.19,311.97 C196.73,314.74 201.18,314.56 204.86,311.47 ZM 278.14 321.08 C275.19,320.07 271.68,318.14 270.35,316.80 L 267.92 314.37 L 270.03 311.69 C272.65,308.35 273.24,308.35 279.66,311.72 C283.96,313.97 285.34,314.27 287.68,313.44 C292.85,311.63 291.36,308.91 282.98,304.89 C268.30,297.85 264.80,289.00 274.36,283.09 C276.83,281.56 279.39,281.00 283.92,281.00 C290.46,281.00 294.23,282.39 297.50,286.01 L 299.50 288.22 L 296.12 291.04 C292.76,293.85 292.72,293.85 290.12,292.01 C285.02,288.40 277.88,288.65 279.32,292.39 C279.66,293.27 283.68,295.72 288.27,297.84 C297.66,302.18 301.00,305.56 301.00,310.73 C301.00,315.13 296.09,320.33 290.45,321.89 C285.29,323.33 284.48,323.27 278.14,321.08 ZM 318.68 321.55 C309.37,318.23 307.05,313.02 307.02,295.36 L 307.00 282.22 L 310.75 281.76 C317.04,280.99 317.00,280.89 317.00,295.65 C317.00,308.59 317.09,309.18 319.45,311.55 C322.56,314.65 326.11,314.67 329.69,311.59 C332.47,309.20 332.50,309.06 332.83,295.69 L 333.15 282.20 L 336.33 281.73 C338.07,281.48 340.06,281.48 340.75,281.74 C342.35,282.35 342.50,307.55 340.93,311.68 C339.42,315.69 336.13,318.97 331.50,321.11 C326.77,323.29 323.85,323.39 318.68,321.55 ZM 56.51 321.02 C55.97,320.14 63.37,297.12 68.14,284.82 C69.43,281.51 70.66,281.01 75.80,281.70 L 79.84 282.24 L 86.45 301.29 C90.33,312.50 92.68,320.72 92.16,321.24 C90.78,322.62 83.81,321.69 82.85,320.00 C82.38,319.17 81.56,317.26 81.02,315.75 C80.11,313.18 79.67,313.00 74.24,313.00 L 68.44 313.00 L 66.97 317.25 C65.59,321.24 65.25,321.52 61.34,321.80 C59.05,321.97 56.88,321.62 56.51,321.02 ZM 76.54 301.25 C75.81,298.30 74.35,296.31 73.53,297.14 C73.25,297.42 72.73,299.08 72.39,300.82 C71.80,303.77 71.95,304.00 74.48,304.00 C76.96,304.00 77.15,303.74 76.54,301.25 ZM 99.71 321.38 C99.32,320.99 99.00,312.01 99.00,301.44 C99.00,280.54 98.90,280.88 104.77,281.75 L 108.04 282.23 L 107.77 301.87 L 107.50 321.50 L 103.96 321.80 C102.02,321.96 100.11,321.77 99.71,321.38 ZM 227.71 321.38 C226.76,320.42 226.79,282.03 227.75,281.90 C232.22,281.29 235.79,281.26 236.62,281.82 C237.18,282.19 240.49,287.11 243.98,292.75 C247.47,298.39 250.70,303.00 251.16,303.00 C251.62,303.00 252.00,298.27 252.00,292.50 L 252.00 282.00 L 256.50 282.00 L 261.00 282.00 L 261.00 302.00 L 261.00 322.00 L 256.47 322.00 L 251.94 322.00 L 246.06 312.75 C235.68,296.44 236.58,296.69 236.00,310.00 L 235.50 321.50 L 231.96 321.80 C230.02,321.96 228.11,321.77 227.71,321.38 ZM 350.69 321.36 C350.31,320.98 350.00,311.97 350.00,301.33 L 350.00 282.00 L 354.97 282.00 L 359.95 282.00 L 360.22 297.25 L 360.50 312.50 L 370.31 312.79 L 380.11 313.07 L 379.81 317.29 L 379.50 321.50 L 365.44 321.78 C357.71,321.93 351.07,321.74 350.69,321.36 ZM 388.71 321.38 C388.32,320.99 388.00,313.77 388.00,305.33 L 388.00 290.00 L 382.11 290.00 L 376.21 290.00 L 375.84 286.08 C375.47,282.25 375.54,282.16 378.98,281.83 C380.92,281.65 388.49,281.65 395.81,281.83 L 409.11 282.16 L 408.81 285.83 L 408.50 289.50 L 402.78 289.80 L 397.05 290.10 L 396.78 305.80 L 396.50 321.50 L 392.96 321.80 C391.02,321.96 389.11,321.77 388.71,321.38 ZM 222.97 241.00 C211.74,239.92 211.36,239.71 209.98,233.71 C209.32,230.85 207.43,224.35 205.77,219.28 C204.12,214.20 203.01,209.42 203.31,208.64 C203.75,207.48 207.67,207.25 225.50,207.36 L 247.15 207.50 L 250.55 211.50 C258.27,220.58 257.74,220.22 262.81,219.77 C265.39,219.54 268.25,219.02 269.16,218.61 C270.57,217.97 270.88,218.71 271.29,223.68 C271.55,226.88 271.93,230.38 272.13,231.47 C273.11,236.69 241.66,242.79 222.97,241.00 ZM 191.75 78.21 C188.31,77.78 188.32,77.24 191.90,72.30 C202.55,57.60 224.95,49.88 248.00,52.96 C265.98,55.37 274.74,58.58 285.00,66.55 C297.28,76.08 297.05,79.09 284.68,70.65 C274.54,63.72 267.21,60.82 253.97,58.49 C242.00,56.39 223.00,56.63 223.00,58.88 C223.00,59.23 224.00,60.14 225.22,60.91 C227.85,62.55 248.50,64.94 250.28,63.81 C254.18,61.33 263.00,64.20 263.00,67.95 C263.00,69.06 264.96,71.05 267.94,72.96 C271.04,74.95 272.69,76.65 272.36,77.51 C271.95,78.56 270.72,78.20 267.06,75.94 C264.43,74.32 261.81,73.00 261.25,73.00 C260.68,73.00 259.94,71.88 259.59,70.52 C258.86,67.58 255.15,66.32 252.07,67.96 C249.27,69.46 225.20,67.31 222.92,65.35 C220.28,63.09 216.11,63.67 214.83,66.46 C213.32,69.79 207.45,73.69 202.18,74.86 C199.80,75.39 197.10,76.44 196.18,77.19 C195.26,77.94 193.26,78.41 191.75,78.21 ZM 205.91 69.30 C210.73,65.68 212.47,63.00 210.00,63.00 C208.55,63.00 199.00,70.03 199.00,71.09 C199.00,72.84 202.35,71.97 205.91,69.30 ZM 243.12 76.65 C241.75,75.00 226.16,73.62 222.82,74.85 C221.54,75.32 218.50,76.02 216.06,76.40 C211.63,77.08 211.62,77.08 213.46,75.04 C214.48,73.92 216.15,73.00 217.17,73.00 C218.19,73.00 219.89,72.46 220.94,71.81 C222.42,70.88 225.72,70.88 235.60,71.81 C242.61,72.47 248.53,73.20 248.76,73.42 C248.98,73.65 248.66,74.77 248.05,75.91 C246.76,78.31 244.75,78.61 243.12,76.65 Z" fill="rgb(250,241,251)"/>
</g>
</svg>